<?xml version="1.0" encoding="UTF-8"?>
<svg version="1.1" xmlns="http://www.w3.org/2000/svg" width="128" height="128">
<path d="M0 0 C10.84769605 8.21425215 17.84683882 19.42770179 20.4296875 32.83984375 C20.7538248 37.20180573 20.8476302 41.48227728 20.4296875 45.83984375 C18.46751717 47.80201408 15.45564606 46.96678862 12.84332275 46.97537231 C11.42040924 46.97233597 11.42040924 46.97233597 9.96875 46.96923828 C8.97534607 46.9709906 7.98194214 46.97274292 6.95843506 46.97454834 C3.65716838 46.97896886 0.35595477 46.97602816 -2.9453125 46.97265625 C-5.22835297 46.97332923 -7.51139337 46.97429921 -9.79443359 46.97555542 C-14.58626994 46.97703266 -19.37808769 46.97487698 -24.16992188 46.97021484 C-30.32747885 46.96451755 -36.48499224 46.96779641 -42.64254761 46.97378731 C-47.35897147 46.9773922 -52.07538491 46.97625466 -56.79180908 46.97365952 C-59.0629273 46.97299005 -61.33404644 46.97381935 -63.60516357 46.97613907 C-66.77325972 46.97866442 -69.94128422 46.97482665 -73.109375 46.96923828 C-74.05798401 46.97126251 -75.00659302 46.97328674 -75.98394775 46.97537231 C-82.45605026 46.95410599 -82.45605026 46.95410599 -83.5703125 45.83984375 C-84.21060469 37.67611831 -83.62509907 30.43955667 -80.5703125 22.83984375 C-80.25320312 22.0303125 -79.93609375 21.22078125 -79.609375 20.38671875 C-74.06718188 7.88730448 -63.9550183 -0.88744466 -51.6875 -6.47265625 C-34.49384397 -12.80484671 -14.99784837 -10.28113374 0 0 Z " fill="#FCFCFE" transform="translate(87.5703125,77.16015625)"/>
<path d="M0 0 C7.22538503 4.30603754 11.61183794 10.13263188 14.4375 18 C15.58377924 27.37083278 15.35041227 36.25894094 9.4375 44 C4.17173342 49.79454649 -1.46288906 53.49851854 -9.39453125 54.46875 C-18.96468152 54.54388366 -26.27935606 53.80103194 -33.6171875 47.1328125 C-40.09535088 40.22456359 -42.12992353 33.50211038 -42.04296875 24.06860352 C-41.74395838 15.54582427 -38.83865527 9.83070397 -32.6875 4.0625 C-23.90268227 -3.41745987 -10.46364874 -4.75036814 0 0 Z " fill="#FCFCFE" transform="translate(69.5625,6)"/>
<path d="M0 0 C3 0.125 3 0.125 4 1.125 C4.07313567 3.65549402 4.09247527 6.15804837 4.0625 8.6875 C4.05798828 9.39841797 4.05347656 10.10933594 4.04882812 10.84179688 C4.03700864 12.60290013 4.01907263 14.36396036 4 16.125 C5.07121094 16.11339844 6.14242187 16.10179687 7.24609375 16.08984375 C8.64322743 16.08046701 10.04036299 16.07136669 11.4375 16.0625 C12.14455078 16.05412109 12.85160156 16.04574219 13.58007812 16.03710938 C15.38693559 16.02846412 17.19387603 16.07279989 19 16.125 C20 17.125 20 17.125 20.125 20.125 C20 23.125 20 23.125 19 24.125 C16.46950598 24.19813567 13.96695163 24.21747527 11.4375 24.1875 C10.72658203 24.18298828 10.01566406 24.17847656 9.28320312 24.17382812 C7.52209987 24.16200864 5.76103964 24.14407263 4 24.125 C4.01160156 25.19621094 4.02320312 26.26742187 4.03515625 27.37109375 C4.04453299 28.76822743 4.05363331 30.16536299 4.0625 31.5625 C4.07087891 32.26955078 4.07925781 32.97660156 4.08789062 33.70507812 C4.09653588 35.51193559 4.05220011 37.31887603 4 39.125 C3 40.125 3 40.125 0 40.25 C-3 40.125 -3 40.125 -4 39.125 C-4.07313567 36.59450598 -4.09247527 34.09195163 -4.0625 31.5625 C-4.05798828 30.85158203 -4.05347656 30.14066406 -4.04882812 29.40820312 C-4.03700864 27.64709987 -4.01907263 25.88603964 -4 24.125 C-5.60681641 24.14240234 -5.60681641 24.14240234 -7.24609375 24.16015625 C-8.64322743 24.16953299 -10.04036299 24.17863331 -11.4375 24.1875 C-12.14455078 24.19587891 -12.85160156 24.20425781 -13.58007812 24.21289062 C-15.38693559 24.22153588 -17.19387603 24.17720011 -19 24.125 C-20 23.125 -20 23.125 -20.125 20.125 C-20 17.125 -20 17.125 -19 16.125 C-16.46950598 16.05186433 -13.96695163 16.03252473 -11.4375 16.0625 C-10.72658203 16.06701172 -10.01566406 16.07152344 -9.28320312 16.07617188 C-7.52209987 16.08799136 -5.76103964 16.10592737 -4 16.125 C-4.01160156 15.05378906 -4.02320312 13.98257813 -4.03515625 12.87890625 C-4.04453299 11.48177257 -4.05363331 10.08463701 -4.0625 8.6875 C-4.07506836 7.62692383 -4.07506836 7.62692383 -4.08789062 6.54492188 C-4.09653588 4.73806441 -4.05220011 2.93112397 -4 1.125 C-3 0.125 -3 0.125 0 0 Z " fill="#FCFCFE" transform="translate(104,39.875)"/>
</svg>
